<mxfile host="app.diagrams.net" modified="2023-03-11T15:46:16.338Z" agent="5.0 (X11; Linux x86_64) AppleWebKit/537.36 (KHTML, like Gecko) Chrome/111.0.0.0 Safari/537.36" etag="rvWbSOqu2xFKhyyM9pCP" version="21.0.6" type="github">
  <diagram name="Page-1" id="w1e5iBH41F0s89eqLAKd">
    <mxGraphModel dx="652" dy="345" grid="1" gridSize="10" guides="1" tooltips="1" connect="1" arrows="1" fold="1" page="1" pageScale="1" pageWidth="827" pageHeight="1169" math="0" shadow="0">
      <root>
        <mxCell id="0" />
        <mxCell id="1" parent="0" />
        <mxCell id="BLmyIP-7RwuMe4oR3W1--5" value="" style="edgeStyle=orthogonalEdgeStyle;rounded=0;orthogonalLoop=1;jettySize=auto;html=1;" parent="1" target="BLmyIP-7RwuMe4oR3W1--4" edge="1">
          <mxGeometry relative="1" as="geometry">
            <Array as="points">
              <mxPoint x="250" y="290" />
              <mxPoint x="250" y="240" />
            </Array>
            <mxPoint x="190" y="290" as="sourcePoint" />
          </mxGeometry>
        </mxCell>
        <mxCell id="BLmyIP-7RwuMe4oR3W1--1" value="Guest" style="shape=umlActor;verticalLabelPosition=bottom;verticalAlign=top;html=1;outlineConnect=0;" parent="1" vertex="1">
          <mxGeometry x="160" y="250" width="30" height="60" as="geometry" />
        </mxCell>
        <mxCell id="BLmyIP-7RwuMe4oR3W1--2" value="Receptionist" style="shape=umlActor;verticalLabelPosition=bottom;verticalAlign=top;html=1;outlineConnect=0;" parent="1" vertex="1">
          <mxGeometry x="160" y="430.2" width="30" height="60" as="geometry" />
        </mxCell>
        <mxCell id="BLmyIP-7RwuMe4oR3W1--3" value="Admin" style="shape=umlActor;verticalLabelPosition=bottom;verticalAlign=top;html=1;outlineConnect=0;" parent="1" vertex="1">
          <mxGeometry x="160" y="610.29" width="30" height="60" as="geometry" />
        </mxCell>
        <mxCell id="BLmyIP-7RwuMe4oR3W1--4" value="make booking" style="rounded=1;whiteSpace=wrap;html=1;verticalAlign=top;" parent="1" vertex="1">
          <mxGeometry x="270" y="230" width="120" height="20" as="geometry" />
        </mxCell>
        <mxCell id="BLmyIP-7RwuMe4oR3W1--13" value="cancel booking" style="rounded=1;whiteSpace=wrap;html=1;verticalAlign=top;" parent="1" vertex="1">
          <mxGeometry x="270" y="260" width="120" height="20" as="geometry" />
        </mxCell>
        <mxCell id="BLmyIP-7RwuMe4oR3W1--14" value="check availability" style="rounded=1;whiteSpace=wrap;html=1;verticalAlign=top;" parent="1" vertex="1">
          <mxGeometry x="270" y="290" width="120" height="20" as="geometry" />
        </mxCell>
        <mxCell id="BLmyIP-7RwuMe4oR3W1--15" value="payment" style="rounded=1;whiteSpace=wrap;html=1;verticalAlign=top;" parent="1" vertex="1">
          <mxGeometry x="270" y="320" width="120" height="20" as="geometry" />
        </mxCell>
        <mxCell id="BLmyIP-7RwuMe4oR3W1--17" value="" style="endArrow=classic;html=1;rounded=0;entryX=0;entryY=0.5;entryDx=0;entryDy=0;endFill=1;" parent="1" target="BLmyIP-7RwuMe4oR3W1--13" edge="1">
          <mxGeometry width="50" height="50" relative="1" as="geometry">
            <mxPoint x="250" y="270" as="sourcePoint" />
            <mxPoint x="310" y="340" as="targetPoint" />
          </mxGeometry>
        </mxCell>
        <mxCell id="BLmyIP-7RwuMe4oR3W1--18" value="" style="endArrow=classic;html=1;rounded=0;entryX=0;entryY=0.5;entryDx=0;entryDy=0;endFill=1;" parent="1" target="BLmyIP-7RwuMe4oR3W1--14" edge="1">
          <mxGeometry width="50" height="50" relative="1" as="geometry">
            <mxPoint x="250" y="300" as="sourcePoint" />
            <mxPoint x="330" y="320" as="targetPoint" />
          </mxGeometry>
        </mxCell>
        <mxCell id="BLmyIP-7RwuMe4oR3W1--20" value="" style="endArrow=classic;html=1;rounded=0;entryX=0;entryY=0.5;entryDx=0;entryDy=0;endFill=1;" parent="1" target="BLmyIP-7RwuMe4oR3W1--15" edge="1">
          <mxGeometry width="50" height="50" relative="1" as="geometry">
            <mxPoint x="250" y="330" as="sourcePoint" />
            <mxPoint x="330" y="320" as="targetPoint" />
          </mxGeometry>
        </mxCell>
        <mxCell id="BLmyIP-7RwuMe4oR3W1--21" value="" style="endArrow=none;html=1;rounded=0;" parent="1" edge="1">
          <mxGeometry width="50" height="50" relative="1" as="geometry">
            <mxPoint x="250" y="330" as="sourcePoint" />
            <mxPoint x="250" y="290" as="targetPoint" />
          </mxGeometry>
        </mxCell>
        <mxCell id="BLmyIP-7RwuMe4oR3W1--23" value="check in&lt;span style=&quot;white-space: pre;&quot;&gt; &lt;/span&gt;" style="rounded=1;whiteSpace=wrap;html=1;verticalAlign=top;" parent="1" vertex="1">
          <mxGeometry x="270" y="370.2" width="120" height="20" as="geometry" />
        </mxCell>
        <mxCell id="BLmyIP-7RwuMe4oR3W1--24" value="check out" style="rounded=1;whiteSpace=wrap;html=1;verticalAlign=top;" parent="1" vertex="1">
          <mxGeometry x="400" y="390.2" width="120" height="20" as="geometry" />
        </mxCell>
        <mxCell id="BLmyIP-7RwuMe4oR3W1--25" value="check booking" style="rounded=1;whiteSpace=wrap;html=1;verticalAlign=top;" parent="1" vertex="1">
          <mxGeometry x="270" y="410.2" width="120" height="20" as="geometry" />
        </mxCell>
        <mxCell id="BLmyIP-7RwuMe4oR3W1--26" value="" style="endArrow=classic;html=1;rounded=0;entryX=0;entryY=0.5;entryDx=0;entryDy=0;endFill=1;" parent="1" target="BLmyIP-7RwuMe4oR3W1--24" edge="1">
          <mxGeometry width="50" height="50" relative="1" as="geometry">
            <mxPoint x="250" y="400.2" as="sourcePoint" />
            <mxPoint x="310" y="480.2" as="targetPoint" />
          </mxGeometry>
        </mxCell>
        <mxCell id="BLmyIP-7RwuMe4oR3W1--27" value="" style="endArrow=classic;html=1;rounded=0;entryX=0;entryY=0.5;entryDx=0;entryDy=0;endFill=1;" parent="1" target="BLmyIP-7RwuMe4oR3W1--25" edge="1">
          <mxGeometry width="50" height="50" relative="1" as="geometry">
            <mxPoint x="250" y="420.2" as="sourcePoint" />
            <mxPoint x="330" y="460.2" as="targetPoint" />
          </mxGeometry>
        </mxCell>
        <mxCell id="BLmyIP-7RwuMe4oR3W1--29" value="" style="endArrow=none;html=1;rounded=0;" parent="1" edge="1">
          <mxGeometry width="50" height="50" relative="1" as="geometry">
            <mxPoint x="250" y="470.2" as="sourcePoint" />
            <mxPoint x="250" y="380.2" as="targetPoint" />
          </mxGeometry>
        </mxCell>
        <mxCell id="BLmyIP-7RwuMe4oR3W1--30" value="" style="edgeStyle=orthogonalEdgeStyle;rounded=0;orthogonalLoop=1;jettySize=auto;html=1;" parent="1" target="BLmyIP-7RwuMe4oR3W1--31" edge="1">
          <mxGeometry relative="1" as="geometry">
            <mxPoint x="190" y="650" as="sourcePoint" />
            <Array as="points">
              <mxPoint x="250" y="650" />
              <mxPoint x="250" y="600" />
            </Array>
          </mxGeometry>
        </mxCell>
        <mxCell id="BLmyIP-7RwuMe4oR3W1--31" value="update database" style="rounded=1;whiteSpace=wrap;html=1;verticalAlign=top;" parent="1" vertex="1">
          <mxGeometry x="270" y="590" width="120" height="20" as="geometry" />
        </mxCell>
        <mxCell id="BLmyIP-7RwuMe4oR3W1--32" value="manage rooms&amp;nbsp;&amp;nbsp;" style="rounded=1;whiteSpace=wrap;html=1;verticalAlign=top;" parent="1" vertex="1">
          <mxGeometry x="270" y="620" width="120" height="20" as="geometry" />
        </mxCell>
        <mxCell id="BLmyIP-7RwuMe4oR3W1--33" value="manage services" style="rounded=1;whiteSpace=wrap;html=1;verticalAlign=top;" parent="1" vertex="1">
          <mxGeometry x="270" y="650" width="120" height="20" as="geometry" />
        </mxCell>
        <mxCell id="BLmyIP-7RwuMe4oR3W1--34" value="" style="endArrow=classic;html=1;rounded=0;entryX=0;entryY=0.5;entryDx=0;entryDy=0;endFill=1;" parent="1" target="BLmyIP-7RwuMe4oR3W1--32" edge="1">
          <mxGeometry width="50" height="50" relative="1" as="geometry">
            <mxPoint x="250" y="630" as="sourcePoint" />
            <mxPoint x="310" y="700" as="targetPoint" />
          </mxGeometry>
        </mxCell>
        <mxCell id="BLmyIP-7RwuMe4oR3W1--35" value="" style="endArrow=classic;html=1;rounded=0;entryX=0;entryY=0.5;entryDx=0;entryDy=0;endFill=1;" parent="1" target="BLmyIP-7RwuMe4oR3W1--33" edge="1">
          <mxGeometry width="50" height="50" relative="1" as="geometry">
            <mxPoint x="250" y="660" as="sourcePoint" />
            <mxPoint x="330" y="680" as="targetPoint" />
          </mxGeometry>
        </mxCell>
        <mxCell id="BLmyIP-7RwuMe4oR3W1--36" value="" style="endArrow=classic;html=1;rounded=0;entryX=0;entryY=0.5;entryDx=0;entryDy=0;endFill=1;" parent="1" edge="1">
          <mxGeometry width="50" height="50" relative="1" as="geometry">
            <mxPoint x="250" y="690" as="sourcePoint" />
            <mxPoint x="270" y="690" as="targetPoint" />
          </mxGeometry>
        </mxCell>
        <mxCell id="BLmyIP-7RwuMe4oR3W1--37" value="" style="endArrow=none;html=1;rounded=0;" parent="1" edge="1">
          <mxGeometry width="50" height="50" relative="1" as="geometry">
            <mxPoint x="250" y="690" as="sourcePoint" />
            <mxPoint x="250" y="650" as="targetPoint" />
          </mxGeometry>
        </mxCell>
        <mxCell id="BLmyIP-7RwuMe4oR3W1--38" value="generate invoice" style="rounded=1;whiteSpace=wrap;html=1;verticalAlign=top;" parent="1" vertex="1">
          <mxGeometry x="400" y="430.2" width="120" height="20" as="geometry" />
        </mxCell>
        <mxCell id="BLmyIP-7RwuMe4oR3W1--39" value="" style="endArrow=classic;html=1;rounded=0;entryX=-0.002;entryY=0.55;entryDx=0;entryDy=0;endFill=1;entryPerimeter=0;" parent="1" target="BLmyIP-7RwuMe4oR3W1--38" edge="1">
          <mxGeometry width="50" height="50" relative="1" as="geometry">
            <mxPoint x="250" y="440.2" as="sourcePoint" />
            <mxPoint x="280" y="450.4" as="targetPoint" />
            <Array as="points" />
          </mxGeometry>
        </mxCell>
        <mxCell id="BLmyIP-7RwuMe4oR3W1--40" value="manage booking" style="rounded=1;whiteSpace=wrap;html=1;verticalAlign=top;" parent="1" vertex="1">
          <mxGeometry x="270" y="450.2" width="120" height="20" as="geometry" />
        </mxCell>
        <mxCell id="BLmyIP-7RwuMe4oR3W1--41" value="" style="endArrow=classic;html=1;rounded=0;entryX=0;entryY=0.5;entryDx=0;entryDy=0;endFill=1;" parent="1" target="BLmyIP-7RwuMe4oR3W1--40" edge="1">
          <mxGeometry width="50" height="50" relative="1" as="geometry">
            <mxPoint x="250" y="460.2" as="sourcePoint" />
            <mxPoint x="270" y="500.59999999999997" as="targetPoint" />
            <Array as="points" />
          </mxGeometry>
        </mxCell>
        <mxCell id="BLmyIP-7RwuMe4oR3W1--42" value="" style="endArrow=none;html=1;rounded=0;" parent="1" edge="1">
          <mxGeometry width="50" height="50" relative="1" as="geometry">
            <mxPoint x="250" y="560" as="sourcePoint" />
            <mxPoint x="250" y="470.2" as="targetPoint" />
          </mxGeometry>
        </mxCell>
        <mxCell id="BLmyIP-7RwuMe4oR3W1--43" value="manage events" style="rounded=1;whiteSpace=wrap;html=1;verticalAlign=top;" parent="1" vertex="1">
          <mxGeometry x="270" y="680" width="120" height="20" as="geometry" />
        </mxCell>
        <mxCell id="BLmyIP-7RwuMe4oR3W1--45" value="" style="endArrow=classic;html=1;rounded=0;endFill=1;" parent="1" edge="1">
          <mxGeometry width="50" height="50" relative="1" as="geometry">
            <mxPoint x="175.06" y="400.2" as="sourcePoint" />
            <mxPoint x="174.72" y="360.2" as="targetPoint" />
          </mxGeometry>
        </mxCell>
        <mxCell id="BLmyIP-7RwuMe4oR3W1--46" value="" style="endArrow=classic;html=1;rounded=0;endFill=1;" parent="1" edge="1">
          <mxGeometry width="50" height="50" relative="1" as="geometry">
            <mxPoint x="174.81000000000003" y="585" as="sourcePoint" />
            <mxPoint x="174.81000000000003" y="545" as="targetPoint" />
          </mxGeometry>
        </mxCell>
        <mxCell id="cbJgYO3ifrj2JUddUglU-1" value="list rooms" style="rounded=1;whiteSpace=wrap;html=1;verticalAlign=top;" vertex="1" parent="1">
          <mxGeometry x="400" y="470.2" width="120" height="20" as="geometry" />
        </mxCell>
        <mxCell id="cbJgYO3ifrj2JUddUglU-2" value="list events" style="rounded=1;whiteSpace=wrap;html=1;verticalAlign=top;" vertex="1" parent="1">
          <mxGeometry x="270" y="490.2" width="120" height="20" as="geometry" />
        </mxCell>
        <mxCell id="cbJgYO3ifrj2JUddUglU-3" value="list services" style="rounded=1;whiteSpace=wrap;html=1;verticalAlign=top;" vertex="1" parent="1">
          <mxGeometry x="400" y="510.2" width="120" height="20" as="geometry" />
        </mxCell>
        <mxCell id="cbJgYO3ifrj2JUddUglU-4" value="" style="endArrow=classic;html=1;rounded=0;entryX=0;entryY=0.5;entryDx=0;entryDy=0;endFill=1;" edge="1" parent="1" target="cbJgYO3ifrj2JUddUglU-2">
          <mxGeometry width="50" height="50" relative="1" as="geometry">
            <mxPoint x="250" y="500.2" as="sourcePoint" />
            <mxPoint x="310" y="630.2" as="targetPoint" />
          </mxGeometry>
        </mxCell>
        <mxCell id="cbJgYO3ifrj2JUddUglU-5" value="" style="endArrow=classic;html=1;rounded=0;entryX=0;entryY=0.5;entryDx=0;entryDy=0;endFill=1;" edge="1" parent="1" target="cbJgYO3ifrj2JUddUglU-3">
          <mxGeometry width="50" height="50" relative="1" as="geometry">
            <mxPoint x="250" y="520.2" as="sourcePoint" />
            <mxPoint x="330" y="610.2" as="targetPoint" />
          </mxGeometry>
        </mxCell>
        <mxCell id="cbJgYO3ifrj2JUddUglU-7" value="accept payment" style="rounded=1;whiteSpace=wrap;html=1;verticalAlign=top;" vertex="1" parent="1">
          <mxGeometry x="270" y="530.2" width="120" height="20" as="geometry" />
        </mxCell>
        <mxCell id="cbJgYO3ifrj2JUddUglU-12" value="" style="endArrow=classic;html=1;rounded=0;entryX=0;entryY=0.5;entryDx=0;entryDy=0;endFill=1;" edge="1" parent="1" target="cbJgYO3ifrj2JUddUglU-1">
          <mxGeometry width="50" height="50" relative="1" as="geometry">
            <mxPoint x="250" y="480.2" as="sourcePoint" />
            <mxPoint x="270" y="530.14" as="targetPoint" />
            <Array as="points" />
          </mxGeometry>
        </mxCell>
        <mxCell id="cbJgYO3ifrj2JUddUglU-14" value="" style="endArrow=classic;html=1;rounded=0;entryX=0;entryY=0.5;entryDx=0;entryDy=0;endFill=1;" edge="1" parent="1">
          <mxGeometry width="50" height="50" relative="1" as="geometry">
            <mxPoint x="250" y="380" as="sourcePoint" />
            <mxPoint x="270" y="380" as="targetPoint" />
          </mxGeometry>
        </mxCell>
        <mxCell id="cbJgYO3ifrj2JUddUglU-20" value="" style="endArrow=classic;html=1;rounded=0;entryX=0;entryY=0.5;entryDx=0;entryDy=0;endFill=1;" edge="1" parent="1">
          <mxGeometry width="50" height="50" relative="1" as="geometry">
            <mxPoint x="250" y="540.04" as="sourcePoint" />
            <mxPoint x="270" y="540.04" as="targetPoint" />
          </mxGeometry>
        </mxCell>
        <mxCell id="cbJgYO3ifrj2JUddUglU-21" value="add guest" style="rounded=1;whiteSpace=wrap;html=1;verticalAlign=top;" vertex="1" parent="1">
          <mxGeometry x="400" y="550.2" width="120" height="20" as="geometry" />
        </mxCell>
        <mxCell id="cbJgYO3ifrj2JUddUglU-22" value="" style="endArrow=classic;html=1;rounded=0;entryX=0;entryY=0.5;entryDx=0;entryDy=0;endFill=1;" edge="1" parent="1" target="cbJgYO3ifrj2JUddUglU-21">
          <mxGeometry width="50" height="50" relative="1" as="geometry">
            <mxPoint x="250" y="560.2" as="sourcePoint" />
            <mxPoint x="330" y="650.2" as="targetPoint" />
          </mxGeometry>
        </mxCell>
      </root>
    </mxGraphModel>
  </diagram>
</mxfile>
